<svg width="89" height="44" viewBox="0 0 89 44" fill="none" xmlns="http://www.w3.org/2000/svg">
<path d="M1.77697 41.9928L0.00119382 39.016H1.19408L2.32597 40.9414L3.45108 39.016H4.63719L2.84108 42.0201V43.8908H1.77697V41.9928Z" fill="#0063CF"/>
<path d="M5.76077 42.0064H7.01465L6.40465 40.2177H6.3911L5.76077 42.0064ZM5.86243 39.016H6.95365L8.76332 43.8908H7.65854L7.29254 42.8052H5.48288L5.10332 43.8908H4.03243L5.86243 39.016Z" fill="#0063CF"/>
<path d="M9.18063 39.016H10.238L12.2577 42.2863H12.2713V39.016H13.2676V43.8908H12.2035L10.1905 40.6273H10.177V43.8908H9.18063V39.016Z" fill="#0063CF"/>
<path d="M17.7017 43.3377C17.5119 43.5835 17.3018 43.7565 17.0714 43.8566C16.8409 43.9522 16.6082 44 16.3733 44C16.0028 44 15.6684 43.9363 15.3702 43.8088C15.0765 43.6768 14.8279 43.4971 14.6246 43.2695C14.4213 43.0419 14.2654 42.7756 14.1569 42.4707C14.0485 42.1612 13.9943 41.8289 13.9943 41.4739C13.9943 41.1098 14.0485 40.7729 14.1569 40.4634C14.2654 40.1494 14.4213 39.8763 14.6246 39.6442C14.8279 39.412 15.0765 39.23 15.3702 39.098C15.6684 38.966 16.0028 38.9 16.3733 38.9C16.6218 38.9 16.8613 38.9387 17.0917 39.016C17.3267 39.0889 17.5368 39.1981 17.7221 39.3438C17.9118 39.4894 18.0677 39.6692 18.1897 39.8831C18.3117 40.097 18.3863 40.3428 18.4134 40.6205H17.3967C17.3335 40.3474 17.2115 40.1426 17.0307 40.006C16.85 39.8695 16.6308 39.8012 16.3733 39.8012C16.1338 39.8012 15.9305 39.849 15.7633 39.9446C15.5961 40.0356 15.4605 40.1608 15.3566 40.3201C15.2527 40.4748 15.1759 40.6523 15.1262 40.8526C15.081 41.0529 15.0584 41.26 15.0584 41.4739C15.0584 41.6787 15.081 41.879 15.1262 42.0747C15.1759 42.2659 15.2527 42.4388 15.3566 42.5936C15.4605 42.7483 15.5961 42.8735 15.7633 42.9691C15.9305 43.0601 16.1338 43.1056 16.3733 43.1056C16.7257 43.1056 16.9968 43.0169 17.1866 42.8394C17.3809 42.6573 17.4939 42.3956 17.5255 42.0542H16.4546V41.2554H18.4879V43.8908H17.8102L17.7017 43.3377Z" fill="#0063CF"/>
<path d="M19.3473 39.016H20.4114V43.8908H19.3473V39.016Z" fill="#0063CF"/>
<path d="M24.0866 41.4739C24.0866 41.6787 24.1092 41.879 24.1544 42.0747C24.2041 42.2659 24.2809 42.4388 24.3848 42.5936C24.4887 42.7483 24.6243 42.8735 24.7915 42.9691C24.9587 43.0601 25.162 43.1056 25.4015 43.1056C25.641 43.1056 25.8443 43.0601 26.0115 42.9691C26.1787 42.8735 26.3142 42.7483 26.4181 42.5936C26.5221 42.4388 26.5966 42.2659 26.6418 42.0747C26.6915 41.879 26.7164 41.6787 26.7164 41.4739C26.7164 41.26 26.6915 41.0529 26.6418 40.8526C26.5966 40.6523 26.5221 40.4748 26.4181 40.3201C26.3142 40.1608 26.1787 40.0356 26.0115 39.9446C25.8443 39.849 25.641 39.8012 25.4015 39.8012C25.162 39.8012 24.9587 39.849 24.7915 39.9446C24.6243 40.0356 24.4887 40.1608 24.3848 40.3201C24.2809 40.4748 24.2041 40.6523 24.1544 40.8526C24.1092 41.0529 24.0866 41.26 24.0866 41.4739ZM23.0225 41.4739C23.0225 41.1098 23.0767 40.7729 23.1851 40.4634C23.2936 40.1494 23.4495 39.8763 23.6528 39.6442C23.8561 39.412 24.1047 39.23 24.3984 39.098C24.6966 38.966 25.031 38.9 25.4015 38.9C25.7765 38.9 26.1109 38.966 26.4046 39.098C26.6983 39.23 26.9468 39.412 27.1501 39.6442C27.3535 39.8763 27.5094 40.1494 27.6178 40.4634C27.7263 40.7729 27.7805 41.1098 27.7805 41.4739C27.7805 41.8289 27.7263 42.1612 27.6178 42.4707C27.5094 42.7756 27.3535 43.0419 27.1501 43.2695C26.9468 43.4971 26.6983 43.6768 26.4046 43.8088C26.1109 43.9363 25.7765 44 25.4015 44C25.031 44 24.6966 43.9363 24.3984 43.8088C24.1047 43.6768 23.8561 43.4971 23.6528 43.2695C23.4495 43.0419 23.2936 42.7756 23.1851 42.4707C23.0767 42.1612 23.0225 41.8289 23.0225 41.4739Z" fill="#0063CF"/>
<path d="M29.2331 42.2727C29.2331 42.4365 29.2625 42.5754 29.3212 42.6892C29.3799 42.8029 29.4568 42.8963 29.5516 42.9691C29.6511 43.0373 29.7663 43.0897 29.8973 43.1261C30.0284 43.158 30.1639 43.1739 30.304 43.1739C30.3989 43.1739 30.5005 43.1671 30.609 43.1534C30.7174 43.1352 30.8191 43.1033 30.914 43.0578C31.0089 43.0123 31.0879 42.9509 31.1512 42.8735C31.2145 42.7916 31.2461 42.6892 31.2461 42.5663C31.2461 42.4343 31.2032 42.3273 31.1173 42.2454C31.036 42.1634 30.9275 42.0952 30.792 42.0406C30.6564 41.9859 30.5028 41.9381 30.3311 41.8972C30.1594 41.8562 29.9854 41.8107 29.8092 41.7606C29.6285 41.7151 29.4522 41.6605 29.2805 41.5968C29.1088 41.5285 28.9552 41.442 28.8196 41.3373C28.6841 41.2327 28.5734 41.1029 28.4875 40.9482C28.4062 40.7889 28.3655 40.5977 28.3655 40.3747C28.3655 40.1244 28.4175 39.9082 28.5214 39.7261C28.6299 39.5395 28.7699 39.3847 28.9416 39.2618C29.1134 39.1389 29.3076 39.0479 29.5245 38.9887C29.7414 38.9296 29.9583 38.9 30.1752 38.9C30.4282 38.9 30.67 38.9296 30.9004 38.9887C31.1354 39.0434 31.3432 39.1344 31.524 39.2618C31.7047 39.3893 31.8471 39.5531 31.951 39.7534C32.0594 39.9491 32.1136 40.1881 32.1136 40.4703H31.0834C31.0744 40.3246 31.0428 40.204 30.9885 40.1084C30.9388 40.0128 30.8711 39.9377 30.7852 39.8831C30.6994 39.8285 30.5999 39.7898 30.487 39.7671C30.3785 39.7443 30.2588 39.7329 30.1278 39.7329C30.0419 39.7329 29.9561 39.742 29.8702 39.7602C29.7844 39.7784 29.7053 39.8103 29.633 39.8558C29.5652 39.9013 29.5087 39.9582 29.4635 40.0265C29.4184 40.0948 29.3958 40.1812 29.3958 40.2859C29.3958 40.3815 29.4138 40.4589 29.45 40.5181C29.4861 40.5772 29.5562 40.6318 29.6601 40.6819C29.7685 40.732 29.9154 40.7821 30.1006 40.8321C30.2904 40.8822 30.5367 40.9459 30.8394 41.0233C30.9298 41.0415 31.0541 41.0756 31.2122 41.1257C31.3749 41.1712 31.5353 41.2463 31.6934 41.351C31.8516 41.4557 31.9871 41.5968 32.1001 41.7743C32.2176 41.9473 32.2763 42.1703 32.2763 42.4434C32.2763 42.6664 32.2334 42.8735 32.1475 43.0647C32.0617 43.2558 31.9329 43.422 31.7612 43.5631C31.594 43.6996 31.3839 43.8066 31.1309 43.8839C30.8823 43.9613 30.5932 44 30.2633 44C29.9967 44 29.7369 43.9659 29.4839 43.8976C29.2354 43.8339 29.0139 43.7315 28.8196 43.5904C28.6299 43.4493 28.4785 43.2695 28.3655 43.051C28.2526 42.8325 28.1984 42.5731 28.2029 42.2727H29.2331Z" fill="#0063CF"/>
<path d="M32.9095 39.016H33.9736V43.8908H32.9095V39.016Z" fill="#0063CF"/>
<path d="M36.1623 41.9928L34.3865 39.016H35.5794L36.7113 40.9414L37.8364 39.016H39.0225L37.2264 42.0201V43.8908H36.1623V41.9928Z" fill="#0063CF"/>
<path d="M40.2831 41.4739C40.2831 41.6787 40.3057 41.879 40.3509 42.0747C40.4006 42.2659 40.4774 42.4388 40.5813 42.5936C40.6852 42.7483 40.8208 42.8735 40.988 42.9691C41.1552 43.0601 41.3585 43.1056 41.598 43.1056C41.8375 43.1056 42.0408 43.0601 42.208 42.9691C42.3752 42.8735 42.5107 42.7483 42.6146 42.5936C42.7186 42.4388 42.7931 42.2659 42.8383 42.0747C42.888 41.879 42.9129 41.6787 42.9129 41.4739C42.9129 41.26 42.888 41.0529 42.8383 40.8526C42.7931 40.6523 42.7186 40.4748 42.6146 40.3201C42.5107 40.1608 42.3752 40.0356 42.208 39.9446C42.0408 39.849 41.8375 39.8012 41.598 39.8012C41.3585 39.8012 41.1552 39.849 40.988 39.9446C40.8208 40.0356 40.6852 40.1608 40.5813 40.3201C40.4774 40.4748 40.4006 40.6523 40.3509 40.8526C40.3057 41.0529 40.2831 41.26 40.2831 41.4739ZM39.219 41.4739C39.219 41.1098 39.2732 40.7729 39.3816 40.4634C39.4901 40.1494 39.646 39.8763 39.8493 39.6442C40.0526 39.412 40.3012 39.23 40.5949 39.098C40.8931 38.966 41.2275 38.9 41.598 38.9C41.973 38.9 42.3074 38.966 42.6011 39.098C42.8948 39.23 43.1433 39.412 43.3466 39.6442C43.55 39.8763 43.7059 40.1494 43.8143 40.4634C43.9228 40.7729 43.977 41.1098 43.977 41.4739C43.977 41.8289 43.9228 42.1612 43.8143 42.4707C43.7059 42.7756 43.55 43.0419 43.3466 43.2695C43.1433 43.4971 42.8948 43.6768 42.6011 43.8088C42.3074 43.9363 41.973 44 41.598 44C41.2275 44 40.8931 43.9363 40.5949 43.8088C40.3012 43.6768 40.0526 43.4971 39.8493 43.2695C39.646 43.0419 39.4901 42.7756 39.3816 42.4707C39.2732 42.1612 39.219 41.8289 39.219 41.4739Z" fill="#0063CF"/>
<path d="M46.5908 39.016H47.6549V42.9896H50.0135V43.8908H46.5908V39.016Z" fill="#0063CF"/>
<path d="M51.4624 41.4739C51.4624 41.6787 51.485 41.879 51.5302 42.0747C51.5799 42.2659 51.6567 42.4388 51.7607 42.5936C51.8646 42.7483 52.0001 42.8735 52.1673 42.9691C52.3345 43.0601 52.5378 43.1056 52.7773 43.1056C53.0168 43.1056 53.2201 43.0601 53.3873 42.9691C53.5545 42.8735 53.6901 42.7483 53.794 42.5936C53.8979 42.4388 53.9725 42.2659 54.0177 42.0747C54.0674 41.879 54.0922 41.6787 54.0922 41.4739C54.0922 41.26 54.0674 41.0529 54.0177 40.8526C53.9725 40.6523 53.8979 40.4748 53.794 40.3201C53.6901 40.1608 53.5545 40.0356 53.3873 39.9446C53.2201 39.849 53.0168 39.8012 52.7773 39.8012C52.5378 39.8012 52.3345 39.849 52.1673 39.9446C52.0001 40.0356 51.8646 40.1608 51.7607 40.3201C51.6567 40.4748 51.5799 40.6523 51.5302 40.8526C51.485 41.0529 51.4624 41.26 51.4624 41.4739ZM50.3983 41.4739C50.3983 41.1098 50.4525 40.7729 50.561 40.4634C50.6694 40.1494 50.8253 39.8763 51.0287 39.6442C51.232 39.412 51.4805 39.23 51.7742 39.098C52.0724 38.966 52.4068 38.9 52.7773 38.9C53.1524 38.9 53.4867 38.966 53.7804 39.098C54.0741 39.23 54.3227 39.412 54.526 39.6442C54.7293 39.8763 54.8852 40.1494 54.9937 40.4634C55.1021 40.7729 55.1563 41.1098 55.1563 41.4739C55.1563 41.8289 55.1021 42.1612 54.9937 42.4707C54.8852 42.7756 54.7293 43.0419 54.526 43.2695C54.3227 43.4971 54.0741 43.6768 53.7804 43.8088C53.4867 43.9363 53.1524 44 52.7773 44C52.4068 44 52.0724 43.9363 51.7742 43.8088C51.4805 43.6768 51.232 43.4971 51.0287 43.2695C50.8253 43.0419 50.6694 42.7756 50.561 42.4707C50.4525 42.1612 50.3983 41.8289 50.3983 41.4739Z" fill="#0063CF"/>
<path d="M59.3811 43.3377C59.1913 43.5835 58.9812 43.7565 58.7507 43.8566C58.5203 43.9522 58.2876 44 58.0526 44C57.6821 44 57.3477 43.9363 57.0495 43.8088C56.7558 43.6768 56.5073 43.4971 56.3039 43.2695C56.1006 43.0419 55.9447 42.7756 55.8363 42.4707C55.7278 42.1612 55.6736 41.8289 55.6736 41.4739C55.6736 41.1098 55.7278 40.7729 55.8363 40.4634C55.9447 40.1494 56.1006 39.8763 56.3039 39.6442C56.5073 39.412 56.7558 39.23 57.0495 39.098C57.3477 38.966 57.6821 38.9 58.0526 38.9C58.3011 38.9 58.5406 38.9387 58.771 39.016C59.006 39.0889 59.2161 39.1981 59.4014 39.3438C59.5912 39.4894 59.747 39.6692 59.869 39.8831C59.991 40.097 60.0656 40.3428 60.0927 40.6205H59.076C59.0128 40.3474 58.8908 40.1426 58.7101 40.006C58.5293 39.8695 58.3102 39.8012 58.0526 39.8012C57.8131 39.8012 57.6098 39.849 57.4426 39.9446C57.2754 40.0356 57.1399 40.1608 57.0359 40.3201C56.932 40.4748 56.8552 40.6523 56.8055 40.8526C56.7603 41.0529 56.7377 41.26 56.7377 41.4739C56.7377 41.6787 56.7603 41.879 56.8055 42.0747C56.8552 42.2659 56.932 42.4388 57.0359 42.5936C57.1399 42.7483 57.2754 42.8735 57.4426 42.9691C57.6098 43.0601 57.8131 43.1056 58.0526 43.1056C58.405 43.1056 58.6762 43.0169 58.8659 42.8394C59.0602 42.6573 59.1732 42.3956 59.2048 42.0542H58.1339V41.2554H60.1673V43.8908H59.4895L59.3811 43.3377Z" fill="#0063CF"/>
<path d="M61.0266 39.016H62.0907V43.8908H61.0266V39.016Z" fill="#0063CF"/>
<path d="M63.7508 42.2727C63.7508 42.4365 63.7801 42.5754 63.8389 42.6892C63.8976 42.8029 63.9744 42.8963 64.0693 42.9691C64.1687 43.0373 64.2839 43.0897 64.415 43.1261C64.546 43.158 64.6816 43.1739 64.8216 43.1739C64.9165 43.1739 65.0182 43.1671 65.1266 43.1534C65.2351 43.1352 65.3368 43.1033 65.4316 43.0578C65.5265 43.0123 65.6056 42.9509 65.6689 42.8735C65.7321 42.7916 65.7637 42.6892 65.7637 42.5663C65.7637 42.4343 65.7208 42.3273 65.635 42.2454C65.5536 42.1634 65.4452 42.0952 65.3096 42.0406C65.1741 41.9859 65.0205 41.9381 64.8488 41.8972C64.677 41.8562 64.5031 41.8107 64.3269 41.7606C64.1461 41.7151 63.9699 41.6605 63.7982 41.5968C63.6265 41.5285 63.4729 41.442 63.3373 41.3373C63.2018 41.2327 63.091 41.1029 63.0052 40.9482C62.9239 40.7889 62.8832 40.5977 62.8832 40.3747C62.8832 40.1244 62.9352 39.9082 63.0391 39.7261C63.1475 39.5395 63.2876 39.3847 63.4593 39.2618C63.631 39.1389 63.8253 39.0479 64.0422 38.9887C64.2591 38.9296 64.476 38.9 64.6929 38.9C64.9459 38.9 65.1876 38.9296 65.4181 38.9887C65.653 39.0434 65.8609 39.1344 66.0416 39.2618C66.2224 39.3893 66.3647 39.5531 66.4686 39.7534C66.5771 39.9491 66.6313 40.1881 66.6313 40.4703H65.6011C65.592 40.3246 65.5604 40.204 65.5062 40.1084C65.4565 40.0128 65.3887 39.9377 65.3029 39.8831C65.217 39.8285 65.1176 39.7898 65.0046 39.7671C64.8962 39.7443 64.7765 39.7329 64.6454 39.7329C64.5596 39.7329 64.4737 39.742 64.3879 39.7602C64.302 39.7784 64.2229 39.8103 64.1506 39.8558C64.0829 39.9013 64.0264 39.9582 63.9812 40.0265C63.936 40.0948 63.9134 40.1812 63.9134 40.2859C63.9134 40.3815 63.9315 40.4589 63.9676 40.5181C64.0038 40.5772 64.0738 40.6318 64.1777 40.6819C64.2862 40.732 64.433 40.7821 64.6183 40.8321C64.8081 40.8822 65.0543 40.9459 65.3571 41.0233C65.4475 41.0415 65.5717 41.0756 65.7299 41.1257C65.8925 41.1712 66.0529 41.2463 66.2111 41.351C66.3692 41.4557 66.5048 41.5968 66.6178 41.7743C66.7352 41.9473 66.794 42.1703 66.794 42.4434C66.794 42.6664 66.751 42.8735 66.6652 43.0647C66.5793 43.2558 66.4506 43.422 66.2789 43.5631C66.1117 43.6996 65.9016 43.8066 65.6485 43.8839C65.4 43.9613 65.1108 44 64.781 44C64.5144 44 64.2546 43.9659 64.0015 43.8976C63.753 43.8339 63.5316 43.7315 63.3373 43.5904C63.1475 43.4493 62.9962 43.2695 62.8832 43.051C62.7702 42.8325 62.716 42.5731 62.7205 42.2727H63.7508Z" fill="#0063CF"/>
<path d="M68.498 39.9173H67.0476V39.016H71.0126V39.9173H69.5621V43.8908H68.498V39.9173Z" fill="#0063CF"/>
<path d="M71.5706 39.016H72.6347V43.8908H71.5706V39.016Z" fill="#0063CF"/>
<path d="M73.5695 39.016H74.6336V41.0369L76.5246 39.016H77.853L75.962 40.9414L78.036 43.8908H76.7008L75.2436 41.6992L74.6336 42.3205V43.8908H73.5695V39.016Z" fill="#0063CF"/>
<path d="M79.6808 42.0064H80.9347L80.3247 40.2177H80.3112L79.6808 42.0064ZM79.7825 39.016H80.8737L82.6834 43.8908H81.5786L81.2126 42.8052H79.403L79.0234 43.8908H77.9525L79.7825 39.016Z" fill="#0063CF"/>
<path d="M83.8259 42.2727C83.8259 42.4365 83.8553 42.5754 83.914 42.6892C83.9728 42.8029 84.0496 42.8963 84.1445 42.9691C84.2439 43.0373 84.3591 43.0897 84.4902 43.1261C84.6212 43.158 84.7567 43.1739 84.8968 43.1739C84.9917 43.1739 85.0934 43.1671 85.2018 43.1534C85.3103 43.1352 85.4119 43.1033 85.5068 43.0578C85.6017 43.0123 85.6808 42.9509 85.744 42.8735C85.8073 42.7916 85.8389 42.6892 85.8389 42.5663C85.8389 42.4343 85.796 42.3273 85.7102 42.2454C85.6288 42.1634 85.5204 42.0952 85.3848 42.0406C85.2493 41.9859 85.0956 41.9381 84.9239 41.8972C84.7522 41.8562 84.5783 41.8107 84.402 41.7606C84.2213 41.7151 84.0451 41.6605 83.8734 41.5968C83.7017 41.5285 83.548 41.442 83.4125 41.3373C83.2769 41.2327 83.1662 41.1029 83.0804 40.9482C82.999 40.7889 82.9584 40.5977 82.9584 40.3747C82.9584 40.1244 83.0103 39.9082 83.1143 39.7261C83.2227 39.5395 83.3628 39.3847 83.5345 39.2618C83.7062 39.1389 83.9005 39.0479 84.1174 38.9887C84.3343 38.9296 84.5512 38.9 84.768 38.9C85.0211 38.9 85.2628 38.9296 85.4933 38.9887C85.7282 39.0434 85.9361 39.1344 86.1168 39.2618C86.2976 39.3893 86.4399 39.5531 86.5438 39.7534C86.6523 39.9491 86.7065 40.1881 86.7065 40.4703H85.6763C85.6672 40.3246 85.6356 40.204 85.5814 40.1084C85.5317 40.0128 85.4639 39.9377 85.378 39.8831C85.2922 39.8285 85.1928 39.7898 85.0798 39.7671C84.9714 39.7443 84.8516 39.7329 84.7206 39.7329C84.6347 39.7329 84.5489 39.742 84.463 39.7602C84.3772 39.7784 84.2981 39.8103 84.2258 39.8558C84.158 39.9013 84.1016 39.9582 84.0564 40.0265C84.0112 40.0948 83.9886 40.1812 83.9886 40.2859C83.9886 40.3815 84.0067 40.4589 84.0428 40.5181C84.079 40.5772 84.149 40.6318 84.2529 40.6819C84.3614 40.732 84.5082 40.7821 84.6935 40.8321C84.8833 40.8822 85.1295 40.9459 85.4323 41.0233C85.5226 41.0415 85.6469 41.0756 85.805 41.1257C85.9677 41.1712 86.1281 41.2463 86.2863 41.351C86.4444 41.4557 86.58 41.5968 86.6929 41.7743C86.8104 41.9473 86.8691 42.1703 86.8691 42.4434C86.8691 42.6664 86.8262 42.8735 86.7404 43.0647C86.6545 43.2558 86.5257 43.422 86.354 43.5631C86.1869 43.6996 85.9767 43.8066 85.7237 43.8839C85.4752 43.9613 85.186 44 84.8561 44C84.5896 44 84.3297 43.9659 84.0767 43.8976C83.8282 43.8339 83.6068 43.7315 83.4125 43.5904C83.2227 43.4493 83.0713 43.2695 82.9584 43.051C82.8454 42.8325 82.7912 42.5731 82.7957 42.2727H83.8259Z" fill="#0063CF"/>
<path d="M87.5023 39.016H88.5664V43.8908H87.5023V39.016Z" fill="#0063CF"/>
<path d="M63.9917 31.4586L63.9838 31.4665L62.7774 31.4586H63.9917Z" fill="#0063CF"/>
<path d="M89 27.4505L83.0397 32.1272L78.1031 36.0126V30.3125H73.7302C73.7222 28.3858 73.7222 26.4671 73.7302 24.5564H78.1031V18.8483L82.5079 22.326L83.4761 23.1014L86.2063 25.252L86.9603 25.8436L89 27.4584V27.4505Z" fill="#0063CF"/>
<path d="M39.9285 0L21.5634 31.4745H46.8095L65.0316 0H39.9285ZM40.0237 23.4H37.119L46.5158 7.1631H49.4761L40.0237 23.4Z" fill="#0063CF"/>
<path d="M9.31744 0H20.3413L10.9444 16.2209H0L9.31744 0Z" fill="#0063CF"/>
<path d="M23.3013 0H34.3251L16.1028 31.4665L5.00759 31.4105L23.3013 0Z" fill="#0063CF"/>
<path d="M85.5879 26.1201L83.7538 31.3306L83.0396 31.8902L78.103 31.9142L63.4205 31.9701H62.2063L52.365 31.9222L56.2777 25.0069L57.865 22.2488L70.611 0H81.6348L68.2046 23.3277H78.103L83.6821 23.2637L82.6425 23.7931L85.5879 25.4802V26.1201Z" fill="#0063CF"/>
</svg>
